<?xml version="1.0" encoding="utf-8"?>
<!-- Generator: Adobe Illustrator 16.0.4, SVG Export Plug-In . SVG Version: 6.00 Build 0)  -->
<!DOCTYPE svg PUBLIC "-//W3C//DTD SVG 1.1//EN" "http://www.w3.org/Graphics/SVG/1.1/DTD/svg11.dtd">
<svg version="1.1" id="Layer_1" xmlns="http://www.w3.org/2000/svg" xmlns:xlink="http://www.w3.org/1999/xlink" x="0px" y="0px"
	 width="12px" height="12px" viewBox="0 0 12 12" enable-background="new 0 0 12 12" xml:space="preserve">
<path fill="#FAFAFC" d="M7.406,1.013c-0.658-0.01-1.295,0.17-1.75,0.625l-4.5,4.5C1.062,6.227,1.005,6.353,1,6.481v4
	c0,0.262,0.238,0.5,0.5,0.5h5c0.125,0,0.25-0.042,0.344-0.125l4-4c0.221-0.171,0.248-0.539,0.055-0.741
	c-0.192-0.202-0.562-0.19-0.742,0.022L6.312,9.981H2V6.7l4.344-4.344c0.194-0.194,0.621-0.348,1.062-0.344
	c0.441,0,0.881,0.13,1.156,0.406C8.846,2.701,8.992,3.144,9,3.575c0.008,0.431-0.118,0.837-0.344,1.062L6.031,6.999L4.719,6.981
	l3.125-3.125c0.222-0.171,0.25-0.54,0.057-0.742s-0.564-0.19-0.744,0.024L3.875,6.419c-0.101,0.096-0.16,0.236-0.156,0.375V7.5
	C3.718,7.773,3.978,8,4.25,8h1.969c0.125,0,0.25-0.043,0.344-0.125l2.781-2.518C9.812,4.888,10.013,4.201,10,3.544
	S9.781,2.231,9.281,1.732C8.775,1.226,8.064,1.019,7.406,1.013L7.406,1.013z"/>
</svg>
